<svg xmlns="http://www.w3.org/2000/svg" xmlns:xlink="http://www.w3.org/1999/xlink" style="position:absolute;width:0;height:0" width="0" height="0" version="1.1"><defs><symbol id="icon-caret-down" viewBox="0 0 585 1024"><title>caret-down</title><path d="M585.143 402.286q0 14.857-10.857 25.714l-256 256q-10.857 10.857-25.714 10.857t-25.714-10.857l-256-256q-10.857-10.857-10.857-25.714t10.857-25.714 25.714-10.857h512q14.857 0 25.714 10.857t10.857 25.714z" class="path1"/></symbol><symbol id="icon-caret-up" viewBox="0 0 585 1024"><title>caret-up</title><path d="M585.143 694.857q0 14.857-10.857 25.714t-25.714 10.857h-512q-14.857 0-25.714-10.857t-10.857-25.714 10.857-25.714l256-256q10.857-10.857 25.714-10.857t25.714 10.857l256 256q10.857 10.857 10.857 25.714z" class="path1"/></symbol><symbol id="icon-caret-left" viewBox="0 0 366 1024"><title>caret-left</title><path d="M365.714 256v512q0 14.857-10.857 25.714t-25.714 10.857-25.714-10.857l-256-256q-10.857-10.857-10.857-25.714t10.857-25.714l256-256q10.857-10.857 25.714-10.857t25.714 10.857 10.857 25.714z" class="path1"/></symbol><symbol id="icon-caret-right" viewBox="0 0 366 1024"><title>caret-right</title><path d="M329.143 512q0 14.857-10.857 25.714l-256 256q-10.857 10.857-25.714 10.857t-25.714-10.857-10.857-25.714v-512q0-14.857 10.857-25.714t25.714-10.857 25.714 10.857l256 256q10.857 10.857 10.857 25.714z" class="path1"/></symbol></defs></svg>